<svg width="162" height="100" viewBox="0 0 162 100" fill="none" xmlns="http://www.w3.org/2000/svg">
<path fill-rule="evenodd" clip-rule="evenodd" d="M119.532 54.0629C121.154 54.0631 122.751 53.6619 124.18 52.895L123.954 53.56H128.958L134.724 37.4366L137.105 45.8065H131.922L132.991 50.3808H138.482L139.891 53.56H149.253V43.195L157.821 53.56H162V34.322H156.898V44.7844L148.362 34.322H144.102V50.7698L138.515 34.322H130.578L125.8 48.1421L124.358 46.9904C123.387 48.6774 121.589 49.8128 119.532 49.8128C116.487 49.8128 114.09 47.1848 114.09 44.1356C114.09 41.0861 116.163 38.7827 119.208 38.7827H126.092L127.711 34.322H119.5C114.09 34.322 109.717 38.8314 109.717 44.2491C109.716 49.6671 114.122 54.0629 119.532 54.0629ZM46.6134 76.0258L46.3866 76.6908H51.3915L57.1576 60.5509L59.5385 68.9208H54.3555L55.4245 73.4951H60.9153L62.3244 76.6908H71.7024V66.3095L80.2543 76.6908H84.4331V57.4368H79.3311V67.8989L70.7954 57.4368H66.5354V73.8846L60.9474 57.4368H53.0112L48.2331 71.2569L46.8078 70.1052C45.8195 71.7921 44.0219 72.9276 41.9649 72.9276C38.9199 72.9276 36.5389 70.2998 36.5389 67.2503C36.5389 64.2008 38.5962 61.8975 41.6412 61.8975H48.5249L50.1445 57.4368H41.9327C36.5389 57.4368 32.1498 61.9462 32.1498 67.3637C32.1498 72.7812 36.5554 77.1934 41.9651 77.1934C43.587 77.1938 45.1838 76.7927 46.6134 76.0258ZM54.1452 53.5602L50.7438 40.2752L48.4922 53.5602H40.3452L39.1628 50.2997H34.1742L32.7653 45.7419L37.8187 45.7254L35.211 36.8365L29.8498 53.5602H24.8936L31.5503 34.3222H39.244L44.2324 49.5211L47.1317 34.3222H54.1452L57.3681 48.0125L60.8504 34.3222H68.0581L70.7953 53.5602H66.228L64.3168 40.9403L60.8504 53.5602H54.1452ZM109.474 99.8053V85.1582H113.766L118.609 91.5328V99.8053H123.5V91.4357L130.967 80.6811H125.411L120.941 87.1372L116.762 80.6811H99.8363V84.9472H104.242V99.8053H109.474ZM25.3955 66.8935L9.00443 79.7565C6.26716 81.8979 4.11297 78.0209 6.67186 75.9933L22.804 63.1303C23.3061 62.741 23.1603 61.5406 22.4962 61.8813C21.2169 62.5301 18.593 62.6763 17.7829 62.1084L19.3378 59.7239L17.7829 57.2421C19.7589 56.3176 27.4849 56.8853 27.5658 62.2381C27.5658 63.99 26.6426 65.9365 25.3955 66.8935ZM59.9272 90.2513C59.9272 95.6366 55.5705 100 50.1931 100C44.832 100 40.475 95.6366 40.475 90.2513C40.475 84.8823 44.832 80.5189 50.1931 80.5189C55.5705 80.5189 59.9272 84.8823 59.9272 90.2513ZM50.1931 95.3122C47.4232 95.3122 45.1559 93.0413 45.1559 90.2675C45.1559 87.4776 47.4232 85.2067 50.1931 85.2067C52.9628 85.2067 55.2466 87.4776 55.2466 90.2675C55.2466 93.0415 52.9628 95.3122 50.1931 95.3122ZM95.1717 57.437C89.7781 57.437 85.389 61.9464 85.389 67.3639C85.389 72.7814 89.7945 77.1936 95.2043 77.1936C98.6056 77.1936 101.618 75.442 103.384 72.7816L100.015 70.1052C99.0589 71.7921 97.2611 72.9276 95.204 72.9276C92.159 72.9276 89.7781 70.2998 89.7781 67.2503C89.7781 64.2008 91.8353 61.8975 94.8801 61.8975H101.181L102.331 57.4368H95.1717V57.437ZM61.0936 90.3649C61.0936 85.0769 65.4828 80.6811 70.8766 80.6811V80.6813H78.0354L76.8856 85.0447H70.5848C67.54 85.0447 65.4828 87.2832 65.4828 90.2353C65.4828 93.2359 67.8637 95.7988 70.9087 95.7988C72.9657 95.7988 74.7636 94.6958 75.7192 93.0575L79.0884 95.6526C77.3229 98.2479 74.3103 99.9835 70.909 99.9835C65.4992 99.9835 61.0936 95.6528 61.0936 90.3649ZM91.0415 53.5603V38.994H94.4104C96.3864 38.994 97.6014 39.7078 97.6662 41.5894C97.6986 43.0006 96.0303 43.8927 95.1879 43.8927H92.1429V47.7857H93.4062L97.4878 53.5603H103.222L98.8646 47.1855C98.9086 47.0975 99.0917 46.9486 99.3536 46.7356C100.346 45.9288 102.47 44.202 102.444 41.3785C102.412 38.8481 101.731 34.3225 95.1231 34.3225H86.1824V53.5605H91.0415V53.5603ZM123.97 67.1532H126.237C128.213 67.1532 129.218 65.9689 129.218 64.5904C129.218 62.9518 128.213 62.0435 126.383 62.0435H123.014V76.691H117.944V57.437H126.658C132.862 57.437 134.141 61.865 134.141 64.5255C134.141 67.7856 131.096 70.1216 130.627 70.2674L134.951 76.691H129.347L125.314 70.9811H123.97V67.1532ZM21.411 77.3883C23.8894 75.4418 21.3303 72.0354 18.7871 73.9819L8.46993 81.9625C5.44088 84.2823 8.19436 87.786 11.2072 85.4015L21.411 77.3883ZM108.907 68.9859V72.4736H116.762V76.691H103.837V57.437H116.487V61.8975H108.907V64.655H116.487V68.9859H108.907ZM76.9826 49.3589V45.8714H84.5465V41.5405H76.9826V38.7829H84.5465V34.3222H71.9129V53.5602H84.8219V49.3589H76.9826ZM91.1713 92.1005V95.588H99.0265V99.8053H86.1014V80.6811H98.7512V84.9472H91.1713V87.7696H98.7512V92.1005H91.1713Z" fill="white"/>
<path fill-rule="evenodd" clip-rule="evenodd" d="M9.60353 62.0935C8.8589 62.529 5.92784 62.4483 5.31252 61.9161C4.74601 61.4322 4.08189 62.6903 4.92413 63.3029L12.5346 69.3997L9.15037 72.19L1.87994 66.5449C0.503349 65.4804 -0.0310034 63.8354 0.00138157 61.7868C0.050184 56.674 7.69304 56.2062 9.68472 57.2064L7.98428 59.8032L9.60353 62.0935ZM11.8543 91.561C9.24731 93.5771 7.14251 90.6419 9.52281 88.7707L18.0886 82.0772C20.242 80.4159 22.412 83.3032 20.1775 85.0449L11.8543 91.561ZM35.5763 93.8029C35.5763 96.1255 30.4918 95.3997 28.0468 93.8029V98.2545C34.3459 101.448 40.013 98.4158 40.013 93.8352C40.013 90.1417 37.4708 88.5449 35.7544 87.6739C35.046 87.335 34.4435 87.0883 33.9497 86.8862L33.9496 86.8861L33.9496 86.8861C32.728 86.3859 32.1717 86.1581 32.3216 85.4804C32.7264 83.6901 36.5478 84.4159 39.2682 85.303V81.1417C32.2568 78.3192 27.7553 81.9643 27.7553 85.2385C27.7553 88.6191 29.427 89.5562 30.5928 90.2098C30.8509 90.3544 31.0842 90.4852 31.2691 90.6255C31.7639 90.998 32.4155 91.2402 33.0616 91.4804C34.3186 91.9478 35.5549 92.4074 35.5763 93.8029ZM13.9272 99.0287C12.8261 98.9158 11.644 97.9967 11.5469 96.9481C11.4657 95.7386 11.4009 94.69 11.5143 94.19L16.0158 90.3513V93.0933C16.0158 93.6189 16.3429 94.181 16.6743 94.7506C17.1057 95.4919 17.5443 96.2458 17.2788 96.9481C16.777 98.319 15.2711 99.1577 13.9272 99.0287ZM133.946 78.4966C134.621 78.495 135.268 78.7613 135.745 79.2366C136.222 79.7118 136.49 80.3569 136.488 81.0291C136.488 82.4159 135.355 83.5449 133.946 83.5449C132.553 83.5449 131.42 82.4159 131.42 81.0291C131.42 79.6258 132.553 78.4966 133.946 78.4966ZM131.808 80.9966C131.808 79.8353 132.78 78.8837 133.946 78.8837C135.112 78.8837 136.099 79.8353 136.099 80.9966C136.099 82.174 135.112 83.1256 133.946 83.1256C132.78 83.1256 131.808 82.174 131.808 80.9966ZM135.176 80.3355C135.176 80.6256 134.966 80.9645 134.658 81.0127C134.901 81.0127 135.112 81.3675 135.112 81.7062C135.112 81.8837 135.112 82.1417 135.144 82.271L135.177 82.3516H134.61C134.61 82.3516 134.577 82.2065 134.577 82.1256V81.7869C134.577 81.5288 134.302 81.2222 134.059 81.2222H133.476V82.3514H132.909V79.5286H134.431C134.788 79.5289 135.176 79.8517 135.176 80.3355ZM133.476 80.7708V79.9807H134.124C134.432 79.9807 134.577 80.0611 134.577 80.3355C134.577 80.6256 134.432 80.7708 134.156 80.7708H133.476Z" fill="white"/>
<path fill-rule="evenodd" clip-rule="evenodd" d="M11.769 9.35042L11.0552 66.4705L13.5535 68.4082L15.9869 66.325L15.2731 9.35042L13.4724 0L11.769 9.35042ZM108.425 53.535V34.3818H103.704V53.535H108.425ZM79.5322 99.5763V80.5363H84.172V99.5763H79.5322Z" fill="white"/>
</svg>
