<svg width="94" height="95" viewBox="0 0 94 95" fill="none" xmlns="http://www.w3.org/2000/svg">
<path fill-rule="evenodd" clip-rule="evenodd" d="M54.035 28.4157C54.5362 27.3342 55.0021 26.4706 55.6727 25.4427C55.9683 24.9907 56.3063 24.6733 56.6014 24.2177C56.4582 24.1749 56.2517 24.2924 56.1599 24.3554C55.8635 24.5702 55.7283 24.9209 55.4893 25.1096C54.9266 25.5513 54.9433 25.9547 54.6473 26.1573C54.3834 26.345 54.3084 26.467 54.1213 26.7565C53.9993 26.9488 53.9075 27.1059 53.7787 27.4837C53.7317 27.621 53.6409 27.5012 53.4186 27.8038C53.1325 28.195 53.0023 28.6174 52.883 29.0942C52.8428 29.2499 52.5766 29.3319 52.4062 29.657C52.1771 30.0919 52.0253 30.4989 51.9272 31.1342C51.9033 31.2823 51.6506 31.3845 51.4775 31.796C51.3564 32.0846 51.2692 32.1472 51.1616 32.6938C51.0961 33.0256 50.9434 33.0743 50.7716 33.5551C50.6415 33.9248 50.6347 34.2777 50.5886 34.7604C50.5791 34.8563 50.4196 35.0386 50.2732 35.3079C50.0309 35.7568 50.0382 36.0589 49.9387 36.5244C49.9026 36.6937 49.7128 36.9148 49.5316 37.637C49.3707 38.2768 49.518 38.6982 49.4647 39.016C49.3237 39.8319 49.1822 40.5441 49.2577 41.3505C49.2948 41.7418 49.3553 42.1501 49.33 42.5288C49.2536 43.717 49.1899 44.6949 49.1962 46.0411C49.1994 46.7759 49.2577 47.779 49.3689 48.6146C49.4909 49.5367 49.6676 50.2576 49.6676 50.2576H52.686C52.686 50.2576 52.5676 48.5205 52.7244 46.689C52.8179 45.5918 53.0792 44.4306 53.3164 43.6134C53.6192 42.5734 53.8059 42.0331 54.3762 40.6594C54.3888 40.627 54.3721 40.5 54.2203 40.6243C53.9057 40.8881 53.6441 41.1186 53.3946 41.491C53.0163 42.0632 52.7841 42.5346 52.4745 43.1195C52.1166 43.8012 51.9204 44.3937 51.5476 45.2185C51.5268 44.6237 51.6249 44.0542 51.7451 43.5036C51.8694 42.9435 51.9674 42.4973 52.1441 42.0137C52.4609 41.1592 52.7655 40.4473 53.2699 39.6518C53.5641 39.1943 53.9356 38.7828 54.3152 38.4384C54.7671 38.0269 55.1883 37.6608 55.6619 37.2597C55.1625 37.0048 54.4968 37.5375 54.3662 37.5636C53.6639 37.7 53.3779 38.3506 53.1623 38.4379C52.8568 38.5672 52.6797 38.7531 52.4659 39.0106C52.3 39.2042 52.2512 39.5054 52.08 39.6108C51.7948 39.7882 51.5846 40.0565 51.3881 40.4302C51.3067 40.5847 51.0844 41.3131 50.8408 41.2236C51.2584 38.7454 52.1378 36.4213 53.5455 34.352C54.4417 33.0414 55.4129 31.9154 56.8441 30.91C57.0339 30.7749 57.0714 30.7132 56.8062 30.7204C55.468 30.883 55.3867 31.4935 55.1657 31.5489C54.9569 31.6033 54.6989 31.8514 54.5321 32.0113C54.2338 32.3039 54.2383 32.5524 54.124 32.629C53.8804 32.7978 53.6983 32.9743 53.5302 33.2688C53.4443 33.4236 53.2947 33.7627 53.1637 33.8406C52.8211 34.0378 52.4885 34.3282 52.3208 34.6393C52.1993 34.8658 52.1509 35.1138 51.9914 35.339C51.8196 35.5798 51.5806 35.7599 51.3736 35.9342C51.5304 34.8757 52.0316 33.6199 52.376 32.5394C52.8396 31.0946 53.4018 29.7817 54.035 28.4157Z" fill="white"/>
<path fill-rule="evenodd" clip-rule="evenodd" d="M57.1166 36.998C58.2587 34.4438 59.4594 32.5209 61.0217 30.2719C61.2273 29.9779 61.4099 29.6898 61.5889 29.4142C61.6671 29.2891 62.0525 28.738 62.1339 28.6214C62.6541 27.8334 62.8769 27.5944 63.4124 26.8402C63.5556 26.6363 63.674 26.4751 63.7369 26.2405C63.8512 25.7988 63.4702 25.5026 63.3853 25.078C63.2953 24.6471 63.3432 24.1748 63.5443 23.8115C63.6673 23.5841 63.7902 23.495 63.9176 23.1893C64.1594 22.5985 64.0754 21.3262 64.3546 21.2915C64.2823 21.8953 64.267 22.5769 64.3605 23.1577C64.4726 23.8367 64.8852 24.2437 65.0565 24.9623C65.5143 24.8794 66.015 24.9002 66.3982 24.9344C66.7824 24.9641 67.2686 24.8592 67.6605 24.725C68.1937 24.5449 68.6344 24.2149 69.1771 24.0866C68.7162 24.5278 68.0645 24.6962 67.5172 25.0312C67.3184 25.1568 67.1295 25.3229 66.9957 25.5282C66.7738 25.87 66.603 26.1941 66.2572 26.3445C65.6471 26.6084 65.1234 26.4841 64.4265 26.612C63.3939 27.6745 62.4191 29.1184 61.522 30.6371C59.2425 34.474 57.3408 38.4541 56.2381 42.5301C56.6222 41.8196 56.9842 41.1343 57.3973 40.4599C57.8564 39.7093 58.3694 38.9768 58.9298 38.2402C60.2412 36.5181 61.5383 35.0147 62.9948 33.4321C64.1644 32.1521 65.4537 31.0783 66.8877 30.1819C68.7826 29 71.1208 28.1716 73.1753 28.5966C73.4085 28.6529 73.7433 28.7146 73.8884 28.8681C71.3152 28.5102 69.0067 29.4061 67.2881 30.7798C65.9269 31.8608 64.7822 32.9621 63.6153 34.3916C63.0156 35.0791 62.4733 35.836 61.9382 36.5676C61.3742 37.3402 60.8757 38.1515 60.3786 38.9629C58.7119 41.7084 57.4488 44.6138 56.5192 47.6241C56.4921 47.7195 56.488 47.8163 56.46 47.9113C56.5061 47.842 56.5712 47.7704 56.6132 47.7011C57.8628 45.6772 59.3677 43.7223 61.2725 42.4085C61.4366 42.2982 61.6115 42.0798 61.6544 41.9092C61.8618 41.1069 61.2459 40.7206 62.0968 39.6076C62.2925 39.3537 62.5578 39.2596 62.7431 39.0232C63.0933 38.4879 63.3749 37.5266 63.6673 37.2682C63.5195 37.8944 63.1593 38.5536 63.0829 39.1997C63.0025 39.9066 63.1828 40.4851 63.2144 41.2343C63.7183 41.3045 64.1074 41.5161 64.5033 41.6377C65.1157 41.8264 65.4849 41.7786 66.0909 41.726C66.3499 41.7043 66.8194 41.5526 67.0992 41.6098C66.5112 41.9317 65.7195 41.8714 65.1188 42.1757C64.7008 42.3896 64.577 42.7079 63.999 42.8182C63.4829 42.9191 63.0481 42.8655 62.7119 42.6944C62.453 42.562 62.25 42.5076 62.0168 42.6206C61.3918 42.9191 60.9648 43.341 60.46 43.8475C59.2945 45.0185 58.3391 46.3256 57.4506 48.0356C57.2161 48.4948 57.0037 48.9442 56.8021 49.4061C56.704 49.6344 56.4559 50.2611 56.4559 50.2611H53.4077C53.4077 50.2611 53.3982 49.3831 53.4276 49.0644C53.4863 48.425 53.5713 47.9536 53.6978 47.3062C53.8741 46.3756 54.0463 45.5314 54.2908 44.6291C54.5258 43.7511 54.7798 42.9272 55.0821 42.0825C55.7116 40.3244 56.3836 38.6364 57.1166 36.998Z" fill="white"/>
<path fill-rule="evenodd" clip-rule="evenodd" d="M27.6139 60.6778C28.7278 59.7679 29.5522 59.2434 30.6639 58.5838C31.1158 58.3136 31.8005 58.0079 32.3247 57.7711C34.2508 56.903 36.7992 56.2668 39.2016 56.2205C39.2445 56.2205 39.2414 56.2223 39.2414 56.2223H57.1502C57.1502 56.2223 57.0815 56.2205 57.2126 56.2205C57.7829 56.2205 58.3464 56.4186 58.6931 56.7468C59.0428 57.0773 59.2114 57.586 59.3018 58.0943C59.3777 58.5243 59.3393 58.9052 59.239 59.3685C59.1603 59.735 59.103 59.9489 58.9 60.2586C58.7758 60.4486 58.6605 60.5761 58.4305 60.7611C58.1955 60.9484 57.8611 61.011 57.4792 61.0137C57.4381 61.0159 57.354 61.0177 57.3567 61.0164C57.3594 61.0137 36.411 61.0137 36.411 61.0137C36.411 61.0137 36.2813 61.0132 36.2167 61.0132C34.8446 61.0092 33.4034 61.0803 32.0459 61.2577C31.0082 61.3955 29.9666 61.5576 28.9651 61.8196C27.7002 62.1469 26.4836 62.6044 25.2661 63.0564C25.9395 62.1636 26.719 61.4036 27.6139 60.6778Z" fill="white"/>
<path fill-rule="evenodd" clip-rule="evenodd" d="M33.8299 53.5783C34.9326 52.7886 36.2681 52.1362 37.4507 51.686C38.0518 51.4604 38.8472 51.2083 39.483 51.0516C40.2477 50.8598 41.128 50.7121 41.8443 50.6923C42.0608 50.6869 41.8782 50.6905 41.8782 50.6905L57.235 50.6887C57.235 50.6887 57.5654 50.7072 57.6779 50.7288C57.9658 50.7909 58.1999 50.9075 58.2971 50.9715C58.5339 51.1227 58.8353 51.4442 58.9921 51.6973C59.3898 52.3505 59.4594 53.0561 59.3324 53.7927C59.1824 54.6314 58.5456 55.5864 57.6739 55.6094C57.5234 55.6125 57.2219 55.6094 57.2219 55.6094H40.5862C40.5862 55.6094 39.6191 55.6305 39.1766 55.6458C38.3578 55.6755 37.4507 55.7683 36.7376 55.8763C36.1253 55.961 35.5292 56.0776 34.9177 56.2406C32.866 56.7939 31.0836 57.8304 29.2217 58.6313C30.4762 56.4481 32.1745 54.7742 33.8299 53.5783Z" fill="white"/>
<path fill-rule="evenodd" clip-rule="evenodd" d="M25.2393 63.9761C27.9074 62.407 31.1256 61.7857 34.0708 61.6902C34.1395 61.6884 34.28 61.679 34.28 61.679L57.2386 61.6803C57.2386 61.6803 57.2806 61.6803 57.4903 61.679C58.8809 61.6781 59.3902 63.0562 59.3834 64.1679C59.3776 64.5317 59.3175 64.909 59.2144 65.1561C59.082 65.4875 58.9374 65.7545 58.6974 66.0107C58.612 66.1075 58.3052 66.32 58.1696 66.3551C57.8496 66.4326 57.4573 66.4231 57.4628 66.4231C57.4655 66.4231 40.3837 66.4267 40.3837 66.4231C40.3837 66.4231 39.4622 66.3866 38.8227 66.3227C38.3613 66.2781 38.0129 66.2318 37.5325 66.1435C36.3571 65.9094 35.3841 65.5276 34.365 65.2151C33.6844 65.0017 32.9722 64.8464 32.2256 64.7383C30.8549 64.5258 29.3559 64.4331 27.9734 64.5348C26.2118 64.6676 24.6464 65.013 22.9729 65.5388C23.2526 65.0999 24.4308 64.4529 25.2393 63.9761Z" fill="white"/>
<path fill-rule="evenodd" clip-rule="evenodd" d="M37.6072 71.1516C36.8213 70.8756 36.0544 70.5213 35.3697 70.0665C34.4727 69.4785 34.0352 69.0076 32.8787 68.4759C31.8881 68.0229 31.0991 67.57 29.7193 67.0702C29.0537 66.8307 27.9745 66.5029 27.0498 66.3449C25.7271 66.1202 24.4526 66.0257 24.4526 66.0257C24.4526 66.0257 24.7224 65.8546 24.8847 65.8042C26.2346 65.3935 27.4258 65.1945 28.8096 65.095C30.0244 65.0014 31.1402 65.1193 32.3586 65.3102C32.8593 65.3886 33.5087 65.5426 34.0741 65.7029C35.9044 66.2242 37.9882 67.0477 39.8379 67.0522C39.9405 67.0522 39.9269 67.0491 39.9269 67.0491H56.997C56.997 67.0491 56.8668 67.0491 57.0512 67.0491C57.5673 67.0477 58.5322 67.2129 58.9213 67.8991C59.3705 68.6857 59.5106 69.6244 59.1332 70.5627C59.0184 70.8441 58.8277 71.2475 58.5557 71.4965C58.3143 71.7095 57.9248 71.849 57.7015 71.849C57.6346 71.8531 57.5235 71.849 57.5235 71.849H42.5987C42.5987 71.849 42.6534 71.849 42.5156 71.849C40.9912 71.8486 39.0692 71.6635 37.6072 71.1516Z" fill="white"/>
<path fill-rule="evenodd" clip-rule="evenodd" d="M44.4059 76.4261C43.9848 75.9952 43.4031 75.332 42.8753 74.7048C41.8607 73.5004 41.407 72.4163 41.407 72.4163H51.3656C51.3656 72.4163 51.3895 73.5594 51.1599 74.8836C50.9435 76.1177 50.4893 77.4134 50.0026 78.3531C49.984 79.3188 50.3939 80.2144 50.4617 81.1639C49.6442 81.6641 48.7634 82.1625 48.0308 82.8649C47.9847 82.9072 47.9074 82.9072 47.8772 82.7902C47.4853 81.321 47.277 80.0158 46.9557 78.5669C46.0482 77.8668 45.1968 77.2432 44.4059 76.4261Z" fill="white"/>
<path fill-rule="evenodd" clip-rule="evenodd" d="M54.6663 75.6116C54.3856 75.0952 54.1759 74.4086 53.8501 74.0029C53.7819 74.3663 53.8655 74.5896 53.818 74.9381C53.7719 75.2267 53.5315 75.1069 53.4854 74.9741C53.3458 74.5729 53.1962 74.0898 53.0705 73.6891C52.8572 73.0129 52.7881 72.419 52.7881 72.419L54.4462 72.4167C54.4462 72.4167 54.5104 72.4357 54.5366 72.5941C54.6188 73.0075 54.5989 73.4172 54.711 73.8967C54.8611 74.5185 55.0472 75.0826 55.2773 75.6625C55.4752 76.1704 55.731 76.6836 55.9416 77.1893C55.9687 77.2581 55.9836 77.3851 55.9344 77.4517C55.8707 77.5292 55.7645 77.5224 55.7062 77.4517C55.2321 76.9124 55.0396 76.3063 54.6663 75.6116Z" fill="white"/>
<path fill-rule="evenodd" clip-rule="evenodd" d="M57.2311 76.7908C56.9482 76.1937 56.5519 75.5229 56.588 74.8412C56.7693 75.0799 56.8443 75.2541 57.0978 75.3869C57.2139 75.4211 57.4544 75.3883 57.3943 75.1893C57.2822 74.8178 57.1114 74.4968 56.9482 73.984C56.7119 73.2285 56.4814 72.4172 56.4814 72.4172L54.7903 72.4163C54.7903 72.4163 54.8843 73.1011 55.2698 74.1519C55.6065 75.0754 56.1284 76.1375 56.7001 77.1347C57.162 77.956 57.5877 78.6687 58.1146 79.2716C58.2945 79.4755 58.7387 79.2936 58.5476 79.0248C58.0459 78.3193 57.5796 77.5382 57.2311 76.7908Z" fill="white"/>
<path fill-rule="evenodd" clip-rule="evenodd" d="M68.2086 19.8637C67.8416 20.0222 67.5163 20.2297 67.3337 20.5805C67.199 20.8335 67.1118 21.2198 67.3649 21.4359C67.81 21.8146 68.3442 21.4247 68.5611 21.0361C68.8309 20.5436 68.7618 19.5999 68.7618 19.5999C68.7618 19.5999 68.445 19.7637 68.2086 19.8637Z" fill="white"/>
<path fill-rule="evenodd" clip-rule="evenodd" d="M68.5947 22.2239C68.7579 21.9222 69.1054 21.5953 69.4922 21.3612C69.9265 21.096 70.3776 20.8385 70.6912 20.6535C71.0053 20.4657 71.0645 20.3311 71.0645 20.3311C71.0645 20.3311 70.8069 20.422 70.6641 20.5049C69.8913 20.9659 69.0457 21.4864 68.7041 21.639C68.2693 21.8272 67.68 21.8646 67.149 21.9308C67.0622 21.264 66.8892 20.9871 66.8946 20.3923C66.8991 20.1087 66.9651 19.7404 67.0166 19.4828C67.1793 18.6251 67.2136 18.1934 67.2136 18.1934C67.2136 18.1934 67.0812 18.3136 67.0347 18.6909C66.98 19.0317 66.942 19.1573 66.8634 19.5616C66.7726 20.0245 66.6813 20.4198 66.4002 20.712C65.9993 21.1249 65.6265 21.865 65.9374 22.4287C66.1186 22.7574 66.4187 22.711 66.5141 22.7952C66.6103 22.8808 66.6682 23.0829 66.9556 23.1797C67.572 23.3837 68.2729 22.8326 68.5947 22.2239Z" fill="white"/>
<path fill-rule="evenodd" clip-rule="evenodd" d="M67.7943 23.9857C68.0026 23.6471 68.2186 23.4103 68.549 23.2059C69.0976 22.8723 69.5075 22.6476 69.8406 22.4765C69.9847 22.4036 70.1054 22.3171 70.1429 22.1641C69.9929 22.2199 69.4298 22.4842 68.864 22.8156C68.4645 23.0582 67.769 23.3558 67.3048 23.377C67.1186 23.3847 66.9822 23.3405 66.8339 23.3365C66.5226 23.3207 66.1217 23.3977 66.1217 23.3977C66.1217 23.3977 66.0232 22.9596 65.8881 22.6409C65.8225 22.4792 65.7154 22.3126 65.6567 22.0083C65.6183 21.807 65.6065 21.5 65.6228 21.319C65.6675 20.7701 65.8176 20.2348 65.79 19.6792C65.4456 20.3982 65.5862 21.2811 65.1781 21.8345C65.0064 22.0682 64.8703 22.2514 64.7366 22.5472C64.5133 23.0285 64.5413 23.5287 64.8419 23.9943C65.0158 24.2581 65.3986 24.2505 65.4678 24.2991C65.5672 24.3747 65.6521 24.6512 66.0304 24.7367C66.6726 24.879 67.4305 24.5841 67.7943 23.9857Z" fill="white"/>
<path fill-rule="evenodd" clip-rule="evenodd" d="M67.9741 38.0119C68.1223 37.7112 68.2204 37.3168 68.4111 37.0349C67.9786 37.1015 67.909 37.1497 67.2867 37.2195C67.1494 37.2294 66.8665 37.3712 66.7747 37.4626C66.5275 37.7134 66.3133 37.943 66.4087 38.3586C66.4462 38.5216 66.5894 38.64 66.6676 38.6657C67.1887 38.8332 67.7138 38.5257 67.9741 38.0119Z" fill="white"/>
<path fill-rule="evenodd" clip-rule="evenodd" d="M68.5014 38.833C69.0921 38.6953 69.7713 38.4089 70.0443 38.4985C69.4921 38.7916 68.7943 38.8997 68.1806 39.0739C67.7128 39.2063 67.378 39.5575 66.9608 39.8785C66.5767 40.1698 66.0674 40.2882 65.6114 40.0743C65.4573 40.001 65.309 39.7529 65.281 39.6232C65.2575 39.5161 65.0383 39.412 64.9249 39.3197C64.8106 39.2238 64.7577 38.9897 64.7541 38.8992C64.7351 38.0838 65.357 37.7543 65.9558 37.2793C66.4072 36.9173 66.9916 35.391 67.3486 35.0745C67.2867 35.567 66.644 36.4972 66.3638 37.2198C66.1397 37.7943 66.2138 38.2558 66.0714 38.8614C66.4972 38.888 66.9762 38.9789 67.4069 38.9843C67.7445 38.9879 68.1544 38.9141 68.5014 38.833Z" fill="white"/>
<path fill-rule="evenodd" clip-rule="evenodd" d="M67.8791 40.0871C67.5474 40.1492 67.1411 40.2523 66.8646 40.3113C65.9029 40.5139 65.4455 40.0443 64.6759 40.056C64.7437 39.1776 64.4377 38.7859 64.6881 38.22C64.9145 37.7153 65.1215 37.1817 65.3136 36.7531C65.4708 36.41 65.5169 36.1223 65.5169 36.1223C65.5169 36.1223 65.2856 36.4685 64.623 37.7549C64.3916 38.2056 63.979 38.3019 63.6098 38.7269C63.19 39.2123 62.9478 40.2361 63.7269 40.6661C63.8832 40.7503 63.8602 41.0195 63.9745 41.1267C64.4938 41.6161 65.5468 41.5657 66.2066 40.97C66.729 40.4932 67.3676 40.4153 67.9094 40.2753C68.228 40.1952 68.5069 40.0601 68.5069 40.0601C68.5069 40.0601 68.3541 40.0002 67.8791 40.0871Z" fill="white"/>
<path fill-rule="evenodd" clip-rule="evenodd" d="M49.7071 32.9016L49.7071 32.9019L49.707 32.9023C49.6588 33.0898 49.6108 33.2767 49.5647 33.4632C48.871 36.2848 48.4132 39.6076 48.3074 42.7016C48.2659 43.8475 48.2297 44.9483 48.2916 46.0879C48.3298 46.7569 48.4253 47.4152 48.5206 48.0725V48.0725V48.0726V48.0726V48.0726V48.0726V48.0726V48.0726V48.0727V48.0727V48.0727V48.0727V48.0727V48.0727V48.0728V48.0728V48.0728V48.0728V48.0728V48.0728V48.0729V48.0729V48.0729V48.0729V48.0729V48.0729V48.073V48.073V48.073V48.073V48.073V48.0731V48.0731V48.0731V48.0731V48.0731V48.0731V48.0732V48.0732V48.0732V48.0732V48.0732V48.0732V48.0733V48.0733V48.0733V48.0733V48.0733V48.0733V48.0734V48.0734C48.6259 48.7999 48.7309 49.5251 48.7585 50.262H48.6247L43.71 50.2638C43.71 50.2638 41.1192 50.2026 39.6762 50.5042C38.8125 50.6834 38.0294 50.8518 37.2046 51.1647C37.127 51.1946 37.0491 51.224 36.9703 51.2537L36.9697 51.2539C36.7187 51.3485 36.4599 51.4461 36.1814 51.5717L36.0499 51.6331C35.6342 51.8268 35.2123 52.0234 34.8126 52.2539C34.7974 52.2626 34.7811 52.2741 34.7639 52.2861C34.6814 52.3441 34.5806 52.4149 34.508 52.2539C34.3465 51.9065 34.1964 51.5497 34.0459 51.1921L34.0458 51.192C33.8864 50.8131 33.7265 50.4331 33.5522 50.0621C32.3351 47.457 31.1317 45.1009 29.6602 42.558C29.4438 42.1827 29.1922 41.7875 28.9461 41.4009L28.9461 41.4009L28.9457 41.4003L28.9449 41.3991C28.859 41.2641 28.7737 41.1301 28.6908 40.9984C28.3736 40.4878 28.1481 40.1605 27.8069 39.6715C26.6576 38.0192 25.554 36.5955 24.1973 35.1903C23.5224 34.4912 22.8502 33.9004 22.1372 33.2736L22.1372 33.2736L22.1371 33.2736L22.1371 33.2735L22.1365 33.273L22.1364 33.2729L22.136 33.2726L22.1359 33.2725L22.1356 33.2723C21.9354 33.0962 21.7319 32.9174 21.5242 32.7325C20.9717 32.2435 20.3498 31.8548 19.7394 31.4733L19.7394 31.4733C19.242 31.1624 18.7523 30.8563 18.3142 30.5047C20.9046 30.1819 23.7649 31.063 26.2229 32.3795C27.1457 32.8684 27.9682 33.4195 28.8002 34.0746C30.0254 35.0406 30.9898 36.0617 32.0263 37.1591C32.1401 37.2796 32.2548 37.401 32.3708 37.5234C32.3737 37.4866 32.4068 37.4687 32.438 37.4517C32.4704 37.4342 32.5009 37.4177 32.4933 37.3821C32.4741 37.3315 32.4421 37.2721 32.4056 37.2042L32.4056 37.2042L32.4056 37.2042C32.3011 37.0102 32.1594 36.7471 32.1738 36.4235C32.1826 36.2145 32.2649 36.0406 32.3306 35.9018C32.3928 35.7703 32.4401 35.6704 32.3957 35.6023C31.9044 34.8252 32.1833 34.2174 32.4079 33.8293C32.4925 33.6792 32.4555 33.5797 32.408 33.4518C32.3796 33.3754 32.3475 33.2889 32.3351 33.1755C32.3098 32.9544 32.3916 32.6406 32.4693 32.4565C32.4907 32.4046 32.5175 32.355 32.5435 32.3067C32.6155 32.1733 32.6821 32.0499 32.6144 31.9153C32.543 31.7649 32.5498 31.4993 32.5642 31.3989C32.5742 31.3041 32.6231 31.2102 32.6729 31.1142C32.7158 31.0319 32.7594 30.948 32.7798 30.8608C32.7911 30.7985 32.7766 30.7307 32.7585 30.6461C32.7382 30.551 32.7133 30.4346 32.7152 30.2805C32.7175 30.163 32.7642 30.0277 32.8147 29.8814C32.8537 29.7682 32.8951 29.6483 32.9199 29.525L32.9364 29.4382L32.9364 29.4382L32.9364 29.4382C32.9744 29.2376 33.0224 28.984 33.0812 28.8483C33.2146 28.5489 33.4722 28.2729 33.8174 28.2071C33.9076 28.191 33.9552 28.1216 34.0232 28.0225C34.0935 27.9199 34.1858 27.7854 34.3697 27.6452C34.5948 27.4734 34.7955 27.454 34.962 27.438C35.1004 27.4247 35.2151 27.4137 35.3006 27.3193C35.9383 26.6124 36.5104 26.6349 37.1097 26.9114C37.2221 26.964 37.3381 26.9228 37.4775 26.8733C37.6327 26.8182 37.817 26.7527 38.0578 26.7952C38.3748 26.8476 38.5978 27.0167 38.7505 27.1325C38.8246 27.1888 38.8822 27.2325 38.926 27.2441C38.9459 27.2503 38.9825 27.2516 39.0326 27.2536C39.2349 27.2613 39.6562 27.2773 40.0775 27.6498C40.1554 27.7175 40.2149 27.8183 40.2733 27.9174L40.2734 27.9174C40.3434 28.0361 40.412 28.1523 40.5091 28.2062C40.7601 28.3493 40.8698 28.6274 40.956 28.8459C40.9982 28.9527 41.0347 29.0453 41.0794 29.1009C41.139 29.1753 41.2422 29.2419 41.3464 29.3092C41.4578 29.3811 41.5704 29.4538 41.6321 29.5376C41.7954 29.7551 41.8343 29.9554 41.8621 30.0985C41.8759 30.1695 41.8869 30.2265 41.9091 30.2643C41.931 30.3031 41.9832 30.3301 42.0545 30.3671C42.1717 30.4277 42.3406 30.5151 42.5124 30.7258C42.5463 30.7645 42.6539 30.9414 42.7194 31.172C42.7467 31.272 42.7483 31.3899 42.7499 31.5055C42.7525 31.7017 42.7551 31.8912 42.883 31.9756C42.9695 32.032 43.0656 32.132 43.145 32.2146C43.2298 32.3029 43.2956 32.3713 43.3101 32.3453C44.2483 30.479 45.0265 29.3859 46.3384 27.9298C47.0339 27.1612 47.0642 25.3306 46.7582 24.0334C48.1109 24.7241 49.0504 26.8087 48.8082 28.5457C48.6898 29.3962 48.3192 30.3377 47.8383 31.1125C47.4676 31.7003 47.1205 32.1809 46.762 32.6773L46.762 32.6773L46.762 32.6773L46.7619 32.6774C46.3718 33.2175 45.9682 33.7763 45.506 34.5123C45.4275 34.6379 45.334 34.7825 45.2344 34.9366L45.2341 34.9371L45.234 34.9372C44.821 35.576 44.3038 36.3761 44.3206 36.6477C44.4082 36.6477 44.5533 36.6576 44.5533 36.6576C44.5533 36.6576 46.2932 33.9589 47.4108 32.574C47.8081 32.076 48.2107 31.4709 48.4765 30.9167C48.7038 30.4457 48.9343 29.9541 49.0626 29.4484C49.2352 28.7803 49.3288 28.041 49.2447 27.3769C49.2001 27.0271 49.1294 26.7202 49.0575 26.4082C49.0166 26.2306 48.9754 26.0515 48.9383 25.8619C49.9701 27.0757 50.3153 28.7434 50.2024 30.3471C50.1385 31.2224 49.9212 32.0682 49.7071 32.9016ZM43.8631 36.0607C43.845 36.0138 43.8262 35.9653 43.8085 35.9143C43.5871 35.2781 42.5418 35.7126 42.1161 36.0278C41.788 36.2727 41.8992 36.8494 42.1726 37.129C42.4098 37.378 42.8839 37.2461 43.1691 37.1448C43.2212 37.1258 43.2739 37.1087 43.3262 37.0918L43.3262 37.0918C43.5781 37.0102 43.8185 36.9324 43.9211 36.6572C44.0088 36.4366 43.9418 36.2636 43.8631 36.0607ZM40.3057 41.5202C40.0679 41.7881 39.7229 41.8574 39.3514 41.9321C39.2047 41.9616 39.0538 41.992 38.9038 42.0357C38.7005 42.0947 38.456 41.9173 38.3511 41.7305C38.155 41.3811 37.9593 40.9164 38.3339 40.5792C38.5515 40.3819 38.8228 40.3334 39.0955 40.2847L39.0955 40.2847L39.0955 40.2847L39.0955 40.2847L39.0956 40.2847L39.0956 40.2847L39.0956 40.2847L39.0956 40.2847L39.0956 40.2847L39.0957 40.2847L39.0957 40.2846L39.0957 40.2846L39.0957 40.2846L39.0958 40.2846L39.0958 40.2846L39.0958 40.2846C39.2144 40.2634 39.3332 40.2422 39.4479 40.2087C39.6192 40.156 39.828 40.097 40.0372 40.2357C40.4661 40.5283 40.6302 41.1528 40.3057 41.5202ZM40.585 43.8263C40.9659 43.6899 41.0753 43.282 40.9659 42.8525C40.7084 41.8412 39.4936 42.1033 38.8839 42.5008C38.3669 42.8331 38.5848 43.6876 39.034 43.9866C39.4087 44.2393 40.0304 44.021 40.5144 43.851L40.585 43.8263ZM34.7222 31.4421C34.8559 31.063 35.3309 31.0855 35.6893 31.1296C36.1326 31.1877 36.2208 31.7528 36.0621 31.9914C35.8459 32.3175 35.3531 32.2558 34.9578 32.2063L34.9567 32.2061C34.6354 32.1638 34.616 31.7406 34.7222 31.4421ZM34.7841 30.0058C34.7122 30.041 34.6621 30.0747 34.6264 30.1873C34.5645 30.3732 34.573 30.6069 34.7638 30.7051C35.0571 30.8608 35.5153 30.8514 35.7426 30.6123C35.8963 30.4534 35.9148 30.1432 35.7056 30.0099C35.4168 29.823 35.0842 29.8627 34.7841 30.0058ZM37.5282 30.8149C37.1721 31.036 36.6605 31.1251 36.3184 30.9365C36.0242 30.7762 36.0368 30.3471 36.1814 30.1161C36.4241 29.7298 37.0184 29.6893 37.4333 29.8073C37.7885 29.9131 37.9222 30.5704 37.5282 30.8149ZM38.1676 32.3651C38.3584 32.0742 38.2942 31.5686 37.9756 31.3903C37.5644 31.1571 37.1423 31.3056 36.7035 31.4601L36.7034 31.4601C36.1539 31.651 36.2967 32.4434 36.5669 32.6393C37.0374 32.9779 37.9105 32.7532 38.1676 32.3651ZM34.9359 32.7145C35.3576 32.5425 36.1453 32.3871 36.2781 32.99C36.4571 33.7901 35.5094 33.9216 35.0019 33.7833C34.6128 33.6762 34.5414 32.8729 34.9359 32.7145ZM36.2754 34.1525C35.8 34.0211 35.2252 34.117 34.8813 34.5177C34.5758 34.877 34.855 35.5109 35.3083 35.5672C35.6807 35.6099 36.0707 35.51 36.4079 35.3736C36.5412 35.3182 36.6885 35.1624 36.6921 34.9454C36.7021 34.5681 36.5669 34.2309 36.2754 34.1525ZM35.1122 36.1759C35.443 35.8396 36.035 35.8184 36.4982 35.8801C36.783 35.9193 36.9063 36.207 36.9443 36.5172C37.0568 37.3717 35.9035 37.5171 35.354 37.3172C34.9956 37.1849 34.8062 36.4915 35.1122 36.1759ZM38.2201 33.0103C37.581 32.8743 36.4838 33.1507 36.7676 34.0265C36.9764 34.6653 37.8875 34.5573 38.3999 34.225C38.8166 33.958 38.6661 33.1035 38.2201 33.0103ZM41.1887 35.0035C40.9415 35.4578 40.1001 35.514 39.7241 35.4659C39.4561 35.4298 39.2685 35.0035 39.2776 34.6451C39.2803 34.4623 39.3368 34.3394 39.4651 34.2727C39.8822 34.0458 40.3129 33.8977 40.7639 33.9697C41.2023 34.0422 41.3749 34.6595 41.1887 35.0035ZM41.4531 36.835C41.7008 36.5082 41.5851 36.1561 41.4188 35.894C41.3569 35.7954 41.1214 35.6865 40.9556 35.686L40.9337 35.686C40.5356 35.6859 40.1251 35.6858 39.8154 35.9701C39.5939 36.1696 39.6188 36.4199 39.6653 36.6644C39.7006 36.849 39.8041 37.1191 40.03 37.1741C40.4345 37.2713 41.2321 37.1326 41.4531 36.835ZM40.8001 33.2394C40.5104 33.6708 39.3476 33.9382 39.0918 33.4983C38.9016 33.176 38.7854 32.7212 39.1388 32.5046C39.5085 32.2791 39.946 32.1436 40.3784 32.2219C40.7829 32.2926 40.9881 32.954 40.8001 33.2394ZM39.4414 32.0525C39.6459 31.9881 39.8168 31.9344 39.9839 31.7838C40.1493 31.6416 40.1556 31.3926 40.0955 31.2071C40.0372 31.0144 39.8379 30.7253 39.5162 30.7848L39.4723 30.7923C39.0345 30.8675 38.4149 30.9739 38.4844 31.5722C38.5283 31.9347 38.9237 32.2242 39.3051 32.0963C39.3523 32.0805 39.3976 32.0663 39.4413 32.0525L39.4414 32.0525ZM37.267 35.0269C37.7501 34.7504 38.7854 34.3893 39.0313 35.1741C39.1293 35.4951 39.1176 35.8922 38.8424 36.0345C38.4465 36.2421 37.8192 36.4591 37.3659 36.1745C36.9822 35.935 36.933 35.2169 37.267 35.0269ZM39.4353 37.0214C39.1953 36.2466 38.1966 36.4766 37.6895 36.8301C37.2091 37.1691 37.4513 38.0304 37.9652 38.1052C38.4392 38.1727 39.1515 38.0538 39.4299 37.6058C39.5324 37.4438 39.4972 37.2222 39.4353 37.0214ZM38.0673 38.6112C38.4862 38.3996 39.0918 38.1425 39.5424 38.4325C39.7471 38.5639 39.9609 39.1101 39.8154 39.3532C39.5058 39.8683 38.6905 40.0002 38.1749 39.8665C37.7338 39.7521 37.6023 38.8462 38.0673 38.6112ZM40.1001 37.7711C39.8949 37.9318 39.9893 38.3208 40.0928 38.5801C40.3305 39.1938 41.1553 38.9471 41.5765 38.7323C41.9855 38.5216 42.0542 37.9746 41.8205 37.654C41.4622 37.1601 40.5176 37.4438 40.1001 37.7711ZM42.9201 33.8576C43.1207 33.8801 43.3006 34.0998 43.3982 34.3407C43.5261 34.6523 43.3968 35.0179 43.2956 35.0836C43.0547 35.2498 42.2901 35.7076 41.8083 35.4312C41.544 35.2804 41.4689 34.9355 41.4518 34.7302C41.3984 34.0683 42.4058 33.8013 42.9201 33.8576ZM42.7605 33.3898C42.8446 33.2773 42.878 32.9238 42.7325 32.7217L42.7136 32.695L42.6999 32.6756C42.6291 32.5748 42.5696 32.4901 42.4831 32.4709C42.0361 32.3781 41.5453 32.5659 41.266 32.8842C40.9944 33.1863 41.2204 33.6942 41.4522 33.8072C41.76 33.9562 42.4948 33.7496 42.7605 33.3898ZM41.868 30.8798C42.2887 30.9342 42.3728 31.5272 42.2887 31.7429C42.1911 31.9293 41.981 32.0715 41.868 32.1296C41.5616 32.2867 41.2 32.348 40.9176 32.2012C40.6604 32.067 40.5475 31.6789 40.6876 31.371C40.876 30.9581 41.4748 30.8302 41.868 30.8798ZM41.0066 30.6704C41.266 30.5335 41.5092 30.3809 41.3953 30.0504C41.1585 29.3557 40.495 29.6074 40.1389 29.941C39.88 30.1819 39.9839 30.5493 40.2158 30.7654C40.3956 30.9383 40.7459 30.81 41.0066 30.6704ZM40.2985 28.6529C40.491 28.67 40.5809 28.8033 40.6153 28.9473C40.6654 29.1423 40.6012 29.3219 40.4349 29.4327C40.2388 29.5651 39.9952 29.6411 39.7991 29.6425C39.5343 29.6484 39.2898 29.2602 39.4326 29.0099C39.5844 28.7398 39.9667 28.6245 40.2985 28.6529ZM39.8357 28.1504C39.9211 27.9744 39.8108 27.792 39.6396 27.7416C39.3074 27.6439 38.7804 27.9694 38.9377 28.335C39.0222 28.5349 39.2559 28.6043 39.5279 28.4368C39.6274 28.3769 39.7819 28.2585 39.8357 28.1504ZM39.25 29.5425C39.4326 29.6911 39.5926 30.0094 39.3734 30.2593C39.1687 30.4952 38.9115 30.5655 38.5861 30.62C38.3674 30.656 38.0881 30.4948 38.0529 30.3012C38.0181 30.1346 37.9873 29.8307 38.1541 29.6916C38.4759 29.4192 38.9083 29.2611 39.25 29.5425ZM38.5717 29.1162C38.6991 29.0401 38.9463 28.7632 38.785 28.4867C38.5726 28.1365 38.3177 28.2466 38.0627 28.3568L38.0626 28.3568C38.037 28.3679 38.0115 28.3789 37.986 28.3895C37.6981 28.5079 37.5621 28.8303 37.7257 29.1027C37.8965 29.3796 38.291 29.2787 38.5717 29.1162ZM37.2394 27.575C37.3876 27.249 37.7605 27.087 38.1188 27.1964C38.1911 27.218 38.3371 27.3341 38.3579 27.4476C38.4013 27.6736 38.3231 27.8776 38.1333 27.9987C37.892 28.1509 37.6891 28.2378 37.4134 28.1243C37.2023 28.0388 37.1526 27.7668 37.2394 27.575ZM36.8792 29.4012C37.1553 29.3399 37.3284 29.1806 37.3876 28.9469C37.4563 28.6619 37.2918 28.4318 37.0649 28.38C36.6722 28.2945 36.2298 28.4138 35.9871 28.7542C35.866 28.9262 35.9338 29.1513 36.0775 29.3107C36.2293 29.4782 36.6072 29.4624 36.8792 29.4012ZM35.7286 27.6353C35.8366 27.2797 36.2424 27.0847 36.6112 27.1923C36.9271 27.2855 37.0012 27.715 36.787 27.9239C36.6903 28.0198 36.5303 28.1162 36.3568 28.1513C35.9817 28.2351 35.6098 28.0284 35.7286 27.6353ZM34.6128 29.3165C34.7122 29.6578 35.1759 29.6384 35.5094 29.5425C35.908 29.4273 35.8167 28.8582 35.5546 28.7726C35.1755 28.6524 34.4461 28.7393 34.6128 29.3165ZM34.5604 28.0707C34.5866 27.9816 34.7258 27.8753 34.8004 27.8515C34.9576 27.7934 35.1452 27.7826 35.2988 27.8438C35.6034 27.969 35.5641 28.3431 35.2369 28.4755C35.09 28.5349 34.8645 28.5732 34.757 28.5349C34.55 28.4656 34.4926 28.2882 34.5604 28.0707ZM34.2856 28.8298C34.1302 28.6619 33.8161 28.6551 33.6032 28.7321C33.3935 28.8087 33.3275 29.1923 33.5327 29.3093C33.6195 29.3557 33.7867 29.4061 33.9277 29.4106C34.3299 29.43 34.4967 29.0603 34.2856 28.8298ZM33.3316 29.7632C33.5648 29.6745 33.9453 29.6956 34.1555 29.805C34.259 29.8591 34.4036 30.0311 34.3444 30.2125C34.2698 30.4489 34.0479 30.5331 33.7971 30.538C33.5531 30.5421 33.2778 30.5227 33.1775 30.3255C33.0853 30.1382 33.1255 29.8438 33.3316 29.7632ZM34.4239 31.3223C34.3954 31.1814 34.3258 31.0918 34.2111 31.04C33.7058 30.8145 33.0248 30.8059 33.0234 31.4948C33.0211 32.108 33.671 32.0846 34.1107 32.0062C34.3991 31.9513 34.4786 31.6222 34.4239 31.3223ZM33.0003 32.4529C33.3931 32.2872 34.0705 32.2111 34.3484 32.6523C34.5193 32.9234 34.4696 33.4204 34.1939 33.4938C33.9245 33.5636 33.0121 33.7149 32.7947 33.2093C32.6854 32.9639 32.7305 32.5632 33.0003 32.4529ZM33.8456 33.9491C33.4635 33.8836 33.0741 33.8169 32.7617 34.1129C32.5118 34.343 32.5647 34.7059 32.6483 35.0035C32.6786 35.0985 32.8187 35.2493 32.9448 35.2525C33.0658 35.2588 33.1879 35.276 33.3093 35.2931L33.3094 35.2931C33.66 35.3425 34.0044 35.3911 34.2965 35.175C34.6354 34.9238 34.6106 34.4195 34.3082 34.1143C34.2499 34.0571 34.1428 33.9958 34.0579 33.9832C33.9877 33.9735 33.9168 33.9613 33.8456 33.9491L33.8456 33.9491ZM32.7419 36.0966C32.9854 35.5658 33.878 35.5627 34.3647 35.7981C34.7606 35.9926 34.8085 36.7256 34.3765 37.0138C34.0334 37.2439 33.4889 37.1606 33.1219 37.0917C32.604 36.998 32.5629 36.4883 32.7419 36.0966ZM33.1757 37.6797C32.9561 37.7904 32.7807 38.1673 33.0338 38.3856C33.1192 38.4606 33.1857 38.5608 33.2506 38.6585C33.3524 38.8119 33.4502 38.9592 33.6109 38.993C33.9824 39.0696 34.4537 39.0619 34.7606 38.853C34.8433 38.8017 34.893 38.6171 34.9124 38.4545C34.9572 38.0511 34.8275 37.6797 34.5699 37.5946C34.1704 37.4604 33.563 37.4879 33.1757 37.6797ZM34.8966 40.6494C34.6248 40.4508 34.4618 40.1932 34.2889 39.9201L34.2889 39.9201C34.2192 39.81 34.148 39.6974 34.0673 39.5851C34 39.4883 34.0673 39.4482 34.1184 39.4311C34.7945 39.2411 35.2939 39.5779 35.1908 40.3113C35.1718 40.4527 35.0783 40.785 34.8966 40.6494ZM35.7693 37.8481C35.5971 37.8917 35.3933 37.9795 35.3522 38.1619C35.269 38.5396 35.3025 39.0808 35.7101 39.1596C36.2135 39.2573 36.6523 39.2348 37.0853 38.9822C37.2991 38.8593 37.3461 38.595 37.3094 38.274L37.3091 38.2699C37.2898 38.0713 37.2763 37.9311 37.1174 37.8319C36.7477 37.5976 36.3071 37.7106 35.8974 37.8156C35.8543 37.8266 35.8116 37.8376 35.7693 37.8481ZM35.9207 39.7773C36.4689 39.4216 37.516 39.1601 37.6913 40.1204C37.746 40.4095 37.6723 40.7926 37.2801 40.9191C36.8774 41.0502 36.4042 41.187 36.035 41.0371C35.5817 40.8557 35.4932 40.052 35.9207 39.7773ZM35.7476 41.7156C35.6803 41.7741 35.725 41.9889 35.781 42.0578C35.9009 42.2062 36.0035 42.3941 36.101 42.5725C36.2466 42.8388 36.3806 43.0841 36.543 43.1456C36.82 43.2514 37.7966 43.1721 37.9358 42.5319C38.0406 42.0452 37.91 41.4567 37.276 41.4004C36.7956 41.3514 36.1724 41.3761 35.7476 41.7156ZM36.9655 44.0199C36.8986 43.9227 36.7617 43.6399 36.8638 43.607C37.6809 43.3265 38.2915 43.318 38.4655 44.1847C38.5888 44.8069 38.1631 45.3369 37.5688 45.1207C37.4748 45.0862 37.3818 44.8727 37.2736 44.6246L37.2736 44.6245C37.1842 44.4194 37.0846 44.1907 36.9655 44.0199ZM38.1387 46.2411C38.2617 46.5538 38.3845 46.866 38.6639 47.0928C38.6999 47.1244 38.7727 47.0649 38.815 47.0304C38.8214 47.0251 38.8272 47.0204 38.832 47.0167C39.1772 46.7592 39.0774 46.2589 38.9377 45.9204C38.7637 45.4967 38.1993 45.4548 37.8649 45.6678C37.9828 45.8447 38.0608 46.043 38.1387 46.2411ZM39.32 48.6673C39.1843 48.6055 39.1431 48.4675 39.104 48.3361C39.086 48.276 39.0685 48.2173 39.0426 48.168C39.0274 48.1381 39.009 48.1061 38.9897 48.0724C38.9086 47.9315 38.8111 47.7617 38.8654 47.6007C39.2486 47.8141 39.4249 48.1914 39.32 48.6673ZM40.099 47.7167L40.099 47.7166C40.127 47.6131 40.155 47.5092 40.1914 47.4066C40.278 47.1551 40.299 46.837 40.3162 46.5755L40.3179 46.5498C40.0472 46.5669 39.7643 46.7592 39.6811 46.9658C39.5324 47.3418 39.6418 47.7015 39.814 48.1256C39.8167 48.1333 39.8917 48.2999 39.9464 48.1738C40.0153 48.0263 40.057 47.872 40.099 47.7167ZM40.8019 45.2202L40.8019 45.2202C40.7473 45.4081 40.6945 45.5898 40.6153 45.7691C40.4865 46.0671 39.9351 46.1725 39.6278 46.0779C39.1899 45.9424 38.8166 44.9636 39.3133 44.5899C39.6894 44.3075 40.082 44.2603 40.5587 44.2029L40.5719 44.2014C40.66 44.1901 40.9836 44.2099 40.9967 44.2405C41.0715 44.4262 41.0344 44.5271 40.9509 44.755L40.9262 44.8227C40.8778 44.9589 40.8394 45.091 40.8019 45.2202ZM41.0735 41.8561C41.1164 42.1429 41.4518 42.7701 41.5837 42.5801C41.9204 42.1033 42.3082 41.3347 42.2887 40.839C41.6782 40.8133 40.947 41.0227 41.0735 41.8561ZM42.5707 40.052C42.4104 40.4786 41.9661 40.5659 41.5464 40.6485L41.5461 40.6486C41.4964 40.6583 41.447 40.668 41.3984 40.6783C41.3148 40.6958 41.0536 40.6783 40.9357 40.5616C40.7395 40.3694 40.5687 40.1069 40.604 39.78C40.622 39.5783 40.7901 39.3784 41.0003 39.2996C41.0494 39.2806 41.0997 39.2601 41.1509 39.2392C41.4954 39.0987 41.88 38.9419 42.2069 39.1254C42.5287 39.3037 42.6991 39.7143 42.5707 40.052ZM43.7577 38.2095C43.8635 38.0164 43.971 37.8204 44.1118 37.6356C44.2288 37.4771 44.0431 37.3429 44.0106 37.3389C43.4353 37.2659 42.7651 37.5266 42.4451 37.9345C42.2642 38.1633 42.4731 38.4844 42.6336 38.7311C42.6471 38.7519 42.6603 38.7721 42.6729 38.7918C42.8202 39.0164 43.1017 39.1056 43.2875 38.912C43.487 38.7033 43.621 38.4589 43.7577 38.2095Z" fill="white"/>
<path fill-rule="evenodd" clip-rule="evenodd" d="M16.0717 21.8542C15.1118 22.8073 14.8258 23.1576 14.2685 24.2116C13.9386 24.8284 13.522 25.6235 13.4036 26.6483C15.3717 25.9009 16.9774 24.3755 18.4294 22.6934C19.5045 21.4449 20.337 19.7867 21.3963 18.5535C19.5298 19.177 17.5631 20.3733 16.0717 21.8542Z" fill="white"/>
<path fill-rule="evenodd" clip-rule="evenodd" d="M10.4313 24.5307C11.1742 23.2813 12.2372 21.931 13.3417 21.0081C12.8296 22.1503 12.2006 23.2836 11.9845 24.6343C11.5552 27.3258 11.1521 29.2123 10.7042 31.667C11.928 30.798 13.2205 29.4297 14.5212 28.4752C15.524 27.7386 16.5304 27.2479 17.5631 26.5428C18.1754 26.1205 18.5745 25.5807 19.0851 25.0723C18.4773 27.627 16.229 30.2041 14.6197 31.4058C12.5937 32.9168 11.8684 33.1591 8.61951 36.4507C8.206 32.3851 8.27786 28.1574 10.4313 24.5307Z" fill="white"/>
<path fill-rule="evenodd" clip-rule="evenodd" d="M3.79874 38.0401C3.95059 35.929 4.20457 34.2388 4.71931 32.1794C5.07995 30.7391 5.85725 28.5964 6.97757 27.7175C6.84109 28.2416 6.76878 29.0228 6.71636 29.5495C6.49627 31.7264 6.91475 34.2536 6.96401 36.4269C6.98932 37.4971 6.97983 38.3206 6.81849 39.3242C6.65264 40.3764 6.79093 41.6708 6.79093 41.6708C6.79093 41.6708 7.37075 41.0112 7.88684 40.19C9.01846 38.4012 9.37864 37.8722 10.2902 36.9006C11.4209 35.7002 12.684 34.5872 14.1112 33.5999C13.9385 34.2685 13.2109 35.5674 12.9073 36.0897C12.5064 36.7885 12.3247 37.4215 11.373 39.0041C10.0366 41.2282 9.44191 41.5272 7.95508 43.904C7.63286 44.4182 6.31415 46.3875 5.99509 46.9868C5.29868 45.5514 5.03701 44.2989 4.18152 41.9635C3.64599 40.4948 3.72644 39.0279 3.79874 38.0401Z" fill="white"/>
<path fill-rule="evenodd" clip-rule="evenodd" d="M1.73216 49.0295C0.925023 46.9463 0.557609 45.013 0.284196 42.8181C0.11608 41.4777 0.192455 39.6876 0.674205 38.3967C0.801196 38.7114 1.05698 39.5129 1.09404 39.6313C1.45061 40.8316 1.60065 41.4061 2.10002 42.561C2.4828 43.4515 2.9519 44.1566 3.44992 45.0341C3.90455 45.8324 4.28823 46.8832 4.61949 47.6914C5.67835 50.2744 5.75698 52.6931 6.1601 52.956C6.45249 52.3334 6.54423 51.7395 6.57677 51.4468C6.89357 48.5883 7.26867 45.9913 10.8818 42.6204C11.214 43.6226 11.0445 45.4731 10.8465 46.4632C10.4141 48.6288 10.0652 49.6684 9.10935 51.7647C8.6041 52.8727 7.92667 54.4977 7.74183 55.0361C7.25556 56.4373 7.09061 57.1734 6.7842 58.0023C5.07955 55.1744 2.97992 52.2478 1.73216 49.0295Z" fill="white"/>
<path fill-rule="evenodd" clip-rule="evenodd" d="M4.54538 62.0554C3.33106 60.3737 2.88818 59.526 2.09821 57.7313C1.43298 56.2307 1.24272 55.6715 0.854522 53.9876C0.642119 53.0696 0.522359 52.2362 0.687311 51.6932C1.63951 53.4077 2.28712 55.3297 3.53036 56.7489C4.51917 57.8785 5.46956 58.8407 6.25455 59.7916C7.45757 61.2576 8.40887 62.6425 9.56353 64.1661C9.6607 63.3989 9.6982 62.6299 9.52602 61.3782C9.29057 59.6624 9.43473 58.2567 9.73662 56.5954C10.1153 54.491 10.3942 53.4464 11.1308 51.3154C12.0265 53.0691 12.0233 55.0979 12.2493 56.9583C12.6841 60.5674 11.5502 64.8698 11.3278 66.6649C11.2673 67.1354 11.3504 68.3047 11.3735 68.7594C9.68058 67.4258 8.17161 66.0828 6.70964 64.6258C6.04395 63.963 5.13107 62.8672 4.54538 62.0554Z" fill="white"/>
<path fill-rule="evenodd" clip-rule="evenodd" d="M10.9709 75.29C10.1977 74.7394 8.12379 73.1586 7.14312 71.9141C5.71278 70.1051 5.39824 69.3325 4.45508 67.2515C4.33939 66.9949 3.80521 65.8184 3.76318 65.0224C6.85298 68.7377 9.6192 69.2893 12.5657 72.3743C13.6476 73.5048 14.758 74.5678 15.3405 75.1036C15.7893 75.5097 16.3479 75.6399 16.3479 75.6399C16.3479 75.6399 16.2878 74.8443 15.9976 74.2932C14.0322 70.5481 13.6603 66.6333 13.9581 62.4353C14.8552 63.5402 15.1381 64.2799 15.708 65.3492C16.328 66.5154 16.6448 67.2402 16.9349 67.9566C18.6161 72.1289 19.0558 76.9469 20.0939 79.3719C16.8839 78.2958 14.3554 77.7199 10.9709 75.29Z" fill="white"/>
<path fill-rule="evenodd" clip-rule="evenodd" d="M24.1312 85.1385C23.2608 85.1939 21.562 85.1876 20.6518 85.0399C16.0585 84.3124 11.7883 80.995 9.64209 77.3463C11.589 78.5345 12.9981 79.3233 14.7109 79.9144C16.2347 80.4426 17.6818 80.5979 20.2293 81.316C21.7649 81.7483 23.2879 82.3619 23.8216 82.5618C25.5249 83.1922 26.2408 83.0368 26.2408 83.0368C26.2408 83.0368 26.2408 82.7766 25.6063 82.0891C24.3368 80.7069 23.875 80.3791 22.8288 79.3183C22.4876 78.9694 21.7017 77.7767 21.3058 76.9875C20.176 74.7534 20.0521 72.9605 19.0204 70.5027C22.7795 72.707 24.608 75.7353 26.5942 79.5588C27.2052 80.7312 28.0322 82.0859 28.7856 82.8293C29.294 83.325 30.0103 84.0845 30.0103 84.0845C30.0103 84.0845 29.4856 84.207 27.855 84.4456C27.1202 84.5555 25.5633 85.0363 24.1312 85.1385Z" fill="white"/>
<path fill-rule="evenodd" clip-rule="evenodd" d="M42.3397 85.4268C44.3259 85.7474 46.0884 86.2309 47.8911 86.8491C48.3765 87.0134 49.1136 87.3772 49.6247 87.637C50.9037 88.2822 51.6403 88.7036 52.7389 89.4555C54.5086 90.6689 56.409 91.98 58.1231 93.966C58.1602 94.006 58.4372 94.2992 58.2533 94.4446C57.9175 94.7075 57.0905 95.0785 56.8148 94.8385C55.2421 93.4451 55.3235 93.0016 53.4222 91.2853C52.9337 90.8485 52.1962 90.2326 51.3176 89.6338C50.4576 89.0503 49.42 88.4114 48.4556 87.9337C47.5811 87.5046 46.2308 87.3772 45.472 87.3772L45.4851 87.3817C45.1389 87.3705 43.1609 87.3615 42.7031 87.3876C38.8165 87.6537 39.005 88.0003 36.7643 88.6095C34.9191 89.1048 32.942 89.4582 30.9788 89.7225C28.9664 89.9949 27.1696 90.03 25.2814 89.8373C22.7258 89.5735 19.9307 88.8639 17.8428 87.5262C19.7494 87.5591 21.7103 87.922 23.6093 87.7761C24.4074 87.7185 25.7031 87.5978 26.5821 87.329C28.326 86.7937 29.3257 86.5875 31.1731 86.0751C32.7589 85.6303 34.3578 85.4831 36.0155 85.307C38.309 85.0625 40.4312 85.1166 42.3397 85.4268Z" fill="white"/>
<path fill-rule="evenodd" clip-rule="evenodd" d="M77.8884 21.8542C78.8483 22.8073 79.1362 23.1576 79.6938 24.2116C80.0238 24.8284 80.4436 25.6235 80.5633 26.6483C78.5903 25.9009 76.9859 24.3755 75.5312 22.6934C74.457 21.4449 73.6254 19.7867 72.5657 18.5535C74.4312 19.177 76.3984 20.3733 77.8884 21.8542Z" fill="white"/>
<path fill-rule="evenodd" clip-rule="evenodd" d="M83.5301 24.5307C82.7863 23.2813 81.7238 21.931 80.6229 21.0081C81.1376 22.239 81.8887 23.7694 81.9782 24.6343C82.2512 27.346 82.8089 29.2123 83.259 31.667C82.0343 30.798 80.74 29.4297 79.4434 28.4752C78.4397 27.7386 77.4328 27.2479 76.4006 26.5428C75.7864 26.1205 75.3869 25.5807 74.8767 25.0723C75.4845 27.627 77.7324 30.2041 79.3453 31.4058C81.3686 32.9168 82.0939 33.1591 85.3437 36.4507C85.7572 32.3851 85.6849 28.1574 83.5301 24.5307Z" fill="white"/>
<path fill-rule="evenodd" clip-rule="evenodd" d="M90.1622 38.0401C90.0131 35.929 89.7596 34.2388 89.2435 32.1794C88.8842 30.7391 88.1046 28.5964 86.9829 27.7175C87.1203 28.2416 87.1944 29.0228 87.2473 29.5495C87.4679 31.7264 87.0516 34.2536 86.9992 36.4269C86.9748 37.4971 86.9829 38.3206 87.1425 39.3242C87.3097 40.3764 87.1718 41.6708 87.1718 41.6708C87.1718 41.6708 86.592 41.0112 86.075 40.19C84.9443 38.4012 84.585 37.8722 83.669 36.9006C82.5423 35.7002 81.277 34.5872 79.8489 33.5999C80.0233 34.2685 80.7518 35.5674 81.0537 36.0897C81.4568 36.7885 81.6353 37.4215 82.5884 39.0041C83.9248 41.2282 84.5227 41.5272 86.0054 43.904C86.3277 44.4182 87.6482 46.3875 87.9668 46.9868C88.6632 45.5514 88.924 44.2989 89.7803 41.9635C90.3168 40.4948 90.2372 39.0279 90.1622 38.0401Z" fill="white"/>
<path fill-rule="evenodd" clip-rule="evenodd" d="M92.2297 49.0295C93.0368 46.9463 93.4065 45.013 93.6799 42.8181C93.8471 41.4777 93.7676 39.6876 93.2885 38.3967C93.1629 38.7114 92.903 39.5129 92.8687 39.6313C92.5099 40.8316 92.3616 41.4061 91.8627 42.561C91.4808 43.4515 91.0117 44.1566 90.511 45.0341C90.0568 45.8324 89.6704 46.8832 89.341 47.6914C88.283 50.2744 88.2039 52.6931 87.8017 52.956C87.5089 52.3334 87.4162 51.7395 87.3864 51.4468C87.0723 48.5883 86.6918 45.9913 83.0791 42.6204C82.747 43.6226 82.916 45.4731 83.1153 46.4632C83.5473 48.6288 83.8994 49.6684 84.8556 51.7647C85.3582 52.8727 86.0343 54.4977 86.2214 55.0361C86.7036 56.4373 86.8694 57.1734 87.1776 58.0023C88.8836 55.1744 90.9819 52.2478 92.2297 49.0295Z" fill="white"/>
<path fill-rule="evenodd" clip-rule="evenodd" d="M89.4165 62.0554C90.6312 60.3737 91.075 59.526 91.8645 57.7313C92.5289 56.2307 92.7196 55.6715 93.1078 53.9876C93.3215 53.0696 93.4386 52.2362 93.275 51.6932C92.3277 53.4077 91.6734 55.3297 90.4306 56.7489C89.4449 57.8785 88.4927 58.8407 87.7091 59.7916C86.5074 61.2576 85.5543 62.6425 84.3983 64.1661C84.3029 63.3989 84.2636 62.6299 84.4358 61.3782C84.6722 59.6624 84.5271 58.2567 84.2279 56.5954C83.8456 54.491 83.5677 53.4464 82.8306 51.3154C81.9362 53.0691 81.9407 55.0979 81.713 56.9583C81.2769 60.5674 82.4139 64.8698 82.6358 66.6649C82.6936 67.1354 82.6114 68.3047 82.5883 68.7594C84.2831 67.4258 85.7907 66.0828 87.2522 64.6258C87.9192 63.963 88.8299 62.8672 89.4165 62.0554Z" fill="white"/>
<path fill-rule="evenodd" clip-rule="evenodd" d="M82.9938 75.29C83.7643 74.7394 85.8386 73.1586 86.8198 71.9141C88.2487 70.1051 88.5651 69.3325 89.5073 67.2515C89.6217 66.9949 90.1568 65.8184 90.1992 65.0224C87.1117 68.7377 84.3437 69.2893 81.3944 72.3743C80.3134 73.5048 79.2094 74.5678 78.6232 75.1036C78.1758 75.5097 77.6163 75.6399 77.6163 75.6399C77.6163 75.6399 77.6737 74.8443 77.9639 74.2932C79.9329 70.5481 80.3008 66.6333 80.0034 62.4353C79.1099 63.5402 78.8243 64.2799 78.2545 65.3492C77.6353 66.5154 77.3194 67.2402 77.0329 67.9566C75.3481 72.1289 74.9071 76.9469 73.8672 79.3719C77.0808 78.2958 79.6057 77.7199 82.9938 75.29Z" fill="white"/>
<path fill-rule="evenodd" clip-rule="evenodd" d="M69.8311 85.1385C70.7028 85.1939 72.403 85.1876 73.3109 85.0399C77.9051 84.3124 82.1749 80.995 84.3197 77.3463C82.371 78.5345 80.9638 79.3233 79.2523 79.9144C77.7266 80.4426 76.2796 80.5979 73.7375 81.316C72.1978 81.7483 70.6775 82.3619 70.1411 82.5618C68.4378 83.1922 67.7215 83.0368 67.7215 83.0368C67.7215 83.0368 67.7215 82.7766 68.356 82.0891C69.6259 80.7069 70.0923 80.3791 71.1326 79.3183C71.4743 78.9694 72.2606 77.7767 72.6601 76.9875C73.7863 74.7534 73.9133 72.9605 74.9428 70.5027C71.1855 72.707 69.352 75.7353 67.3676 79.5588C66.7571 80.7312 65.9323 82.0859 65.1772 82.8293C64.6701 83.325 63.9534 84.0845 63.9534 84.0845C63.9534 84.0845 64.4758 84.207 66.1131 84.4456C66.8407 84.5555 68.3985 85.0363 69.8311 85.1385Z" fill="white"/>
<path fill-rule="evenodd" clip-rule="evenodd" d="M51.6216 85.4268C49.6395 85.7474 47.877 86.2309 46.0734 86.8491C45.5849 87.0134 44.8473 87.3772 44.338 87.637C43.0595 88.2822 42.3265 88.7036 41.2261 89.4555C39.4536 90.6689 37.5551 91.98 35.8387 93.966C35.8021 94.006 35.525 94.2992 35.709 94.4446C36.0452 94.7075 36.8758 95.0785 37.1488 94.8385C38.7192 93.4451 38.6402 93.0016 40.5428 91.2853C41.0281 90.8485 41.7648 90.2326 42.6465 89.6338C43.5056 89.0503 44.5414 88.4114 45.5058 87.9337C46.3798 87.5046 47.7333 87.3772 48.4898 87.3772L48.4781 87.3817C48.8224 87.3705 50.8005 87.3615 51.2583 87.3876C55.1485 87.6537 54.9573 88.0003 57.197 88.6095C59.0418 89.1048 61.0194 89.4582 62.983 89.7225C64.9945 89.9949 66.7963 90.03 68.6822 89.8373C71.236 89.5735 74.0334 88.8639 76.1172 87.5262C74.2124 87.5591 72.2528 87.922 70.353 87.7761C69.5531 87.7185 68.2596 87.5978 67.3802 87.329C65.6394 86.7937 64.6361 86.5875 62.7905 86.0751C61.2038 85.6303 59.6044 85.4831 57.9477 85.307C55.6533 85.0625 53.5301 85.1166 51.6216 85.4268Z" fill="white"/>
<path fill-rule="evenodd" clip-rule="evenodd" d="M44.6489 0.388184L41.1565 13.3077H37.4507L35.1319 4.891L32.8637 13.3077H29.1679L25.6736 0.388184H29.1642L31.1527 9.28081L33.5483 0.388184H36.8826L39.1531 9.28081L41.2396 0.388184H44.6489Z" fill="white"/>
<path fill-rule="evenodd" clip-rule="evenodd" d="M56.1707 2.887H50.2039V5.28946H55.7336V7.78738H50.2039V13.3077H46.8787V0.388184H56.1711V2.887H56.1707Z" fill="white"/>
<path fill-rule="evenodd" clip-rule="evenodd" d="M68.8742 6.16157C69.0766 5.61048 69.1792 5.04588 69.1792 4.46688C69.1792 3.72084 69.0405 3.0806 68.7657 2.54932C68.4887 2.01849 68.0905 1.57951 67.5676 1.23778C67.1333 0.955932 66.6299 0.74252 66.065 0.600245C65.4996 0.460672 64.8059 0.388184 63.9798 0.388184H58.4763V13.3082H61.821V9.09892H63.9016C64.8484 9.09892 65.6402 8.97015 66.2751 8.70901C66.9087 8.44923 67.4872 8.06337 68.0019 7.55415C68.3793 7.17911 68.6703 6.71491 68.8742 6.16157ZM65.4278 3.60107C65.6226 3.86401 65.7234 4.17513 65.7234 4.54072C65.7234 4.90991 65.6714 5.22328 65.5797 5.47991C65.4838 5.7379 65.3275 5.95671 65.1124 6.14266C64.8624 6.34932 64.5529 6.48844 64.1841 6.55823C63.8176 6.62802 63.3485 6.66044 62.7786 6.66044H61.821V2.8019H62.3954C62.9454 2.8019 63.3887 2.80776 63.7182 2.82261C64.0508 2.83792 64.3897 2.91401 64.7377 3.05314C64.998 3.15714 65.2294 3.33724 65.4278 3.60107Z" fill="white"/>
</svg>
