<?xml version="1.0" encoding="UTF-8"?><!DOCTYPE svg PUBLIC "-//W3C//DTD SVG 1.1//EN" "http://www.w3.org/Graphics/SVG/1.1/DTD/svg11.dtd"><svg xmlns="http://www.w3.org/2000/svg" xmlns:xlink="http://www.w3.org/1999/xlink"><defs><path id="instagram-a" d="M0 16.998h17.994V.005H0z"/></defs><symbol id="facebook" viewBox="0 0 34 34"><title>Facebook</title><g fill-rule="evenodd"><path d="M18 13v-1.786c0-.806.178-1.214 1.43-1.214H21V7h-2.4c-3 0-4.2 2.002-4.2 4.2V13H12v3h2.4v9H18v-9h2.644L21 13h-3"/><g class="icon-outline"><path class="outline" d="M16.93 33.86C7.595 33.86 0 26.265 0 16.93S7.595 0 16.93 0s16.93 7.595 16.93 16.93-7.595 16.93-16.93 16.93zm0-32c-8.31 0-15.07 6.76-15.07 15.07S8.62 32 16.93 32 32 25.24 32 16.93 25.24 1.86 16.93 1.86z"/></g></g></symbol><symbol id="instagram" viewBox="0 0 34 34"><title>Instagram</title><g fill-rule="evenodd"><g transform="translate(8 8)"><mask id="instagram-b" fill="#fff"><use xlink:href="#instagram-a"/></mask><path d="M8.997.005c-2.443 0-2.75.01-3.71.051-.957.042-1.611.185-2.183.395a4.445 4.445 0 0 0-1.594.98A4.15 4.15 0 0 0 .472 2.938C.25 3.477.098 4.095.054 4.999.01 5.906 0 6.195 0 8.503c0 2.307.01 2.597.054 3.503.044.905.196 1.522.418 2.063a4.15 4.15 0 0 0 1.038 1.505c.5.472 1.002.763 1.594.98.572.21 1.226.354 2.184.395.96.041 1.266.051 3.71.051 2.443 0 2.749-.01 3.709-.051.957-.041 1.611-.185 2.184-.395a4.445 4.445 0 0 0 1.593-.98 4.15 4.15 0 0 0 1.038-1.505c.222-.54.375-1.158.418-2.063.044-.906.054-1.196.054-3.503 0-2.308-.01-2.597-.054-3.504-.044-.904-.196-1.522-.418-2.062a4.15 4.15 0 0 0-1.038-1.505 4.445 4.445 0 0 0-1.593-.98c-.573-.21-1.227-.354-2.184-.396-.96-.04-1.266-.05-3.71-.05zm0 1.531c2.402 0 2.687.01 3.636.05.877.038 1.353.176 1.67.293.42.154.72.338 1.035.635.315.298.51.58.673.977.123.3.27.75.31 1.578.043.896.052 1.165.052 3.434s-.009 2.537-.052 3.433c-.04.829-.187 1.279-.31 1.578-.163.397-.358.68-.673.977a2.808 2.808 0 0 1-1.035.636c-.317.116-.793.255-1.67.292-.949.041-1.233.05-3.636.05-2.402 0-2.687-.009-3.635-.05-.878-.037-1.354-.176-1.671-.292a2.808 2.808 0 0 1-1.035-.636 2.624 2.624 0 0 1-.673-.977c-.123-.3-.27-.75-.31-1.578-.043-.896-.052-1.164-.052-3.433 0-2.27.01-2.538.053-3.434.04-.828.186-1.278.31-1.578.163-.396.358-.68.672-.977a2.808 2.808 0 0 1 1.035-.635c.317-.117.793-.255 1.67-.293.95-.04 1.234-.05 3.636-.05z" mask="url(#instagram-b)"/></g><path d="M16.997 19.335c-1.656 0-2.999-1.268-2.999-2.832 0-1.565 1.343-2.833 3-2.833 1.655 0 2.998 1.268 2.998 2.833 0 1.564-1.342 2.832-2.999 2.832zm0-7.196c-2.551 0-4.62 1.954-4.62 4.364s2.069 4.363 4.62 4.363c2.552 0 4.62-1.953 4.62-4.363s-2.068-4.364-4.62-4.364zM22.88 11.967c0 .563-.484 1.02-1.08 1.02-.596 0-1.08-.457-1.08-1.02s.484-1.02 1.08-1.02c.596 0 1.08.457 1.08 1.02"/><path d="M16.93 33.86C7.595 33.86 0 26.265 0 16.93S7.595 0 16.93 0s16.93 7.595 16.93 16.93-7.595 16.93-16.93 16.93zm0-32c-8.31 0-15.07 6.76-15.07 15.07S8.62 32 16.93 32 32 25.24 32 16.93 25.24 1.86 16.93 1.86z"/></g></symbol><symbol id="linkedin" viewBox="0 0 14 14"><title>Fill 1</title><path d="M5.347 7.97V5.001h2.822v1.241h-.03c.12-.18.24-.342.36-.484.121-.14.281-.292.481-.453.2-.162.451-.283.75-.363.3-.082.631-.122.991-.122.961 0 1.743.323 2.342.97.601.645.902 1.603.902 2.874v4.905h-2.824V8.999c0-.606-.119-1.08-.36-1.423-.22-.343-.58-.515-1.08-.515-.36 0-.66.1-.902.304-.24.201-.42.443-.54.726-.06.182-.09.413-.09.696v4.783H5.347v-5.6zm-4.414 5.6h2.853V5.002H.933v8.568zm.3-12.26c.28-.284.661-.424 1.142-.424.48 0 .86.14 1.14.423.28.283.43.636.45 1.06 0 .424-.15.777-.45 1.06-.28.281-.66.424-1.14.424h-.031c-.46 0-.84-.143-1.14-.424a1.444 1.444 0 0 1-.422-1.06c0-.424.151-.777.451-1.06z" fill="inherit" fill-rule="evenodd"/></symbol><symbol id="twitter" viewBox="0 0 34 34"><title>Twitter</title><g fill-rule="evenodd"><path d="M26.663 10.896c-.726.32-1.5.537-2.317.637A4.049 4.049 0 0 0 26.121 9.3c-.78.463-1.642.8-2.562.98a4.034 4.034 0 0 0-6.98 2.758c0 .316.034.625.104.92a11.432 11.432 0 0 1-8.316-4.22A4.046 4.046 0 0 0 9.62 15.13a3.936 3.936 0 0 1-1.834-.505v.05a4.038 4.038 0 0 0 3.238 3.958 4.07 4.07 0 0 1-1.062.142c-.259 0-.513-.025-.759-.075a4.041 4.041 0 0 0 3.771 2.804A8.09 8.09 0 0 1 7 23.175 11.278 11.278 0 0 0 13.175 25c7.429 0 11.488-6.154 11.488-11.492 0-.175-.005-.35-.013-.52a8.214 8.214 0 0 0 2.013-2.092"/><path d="M16.93 33.86C7.595 33.86 0 26.265 0 16.93S7.595 0 16.93 0s16.93 7.595 16.93 16.93-7.595 16.93-16.93 16.93zm0-32c-8.31 0-15.07 6.76-15.07 15.07S8.62 32 16.93 32 32 25.24 32 16.93 25.24 1.86 16.93 1.86z"/></g></symbol></svg>