<?xml version="1.0" encoding="UTF-8" standalone="no"?>
<svg width="34px" height="34px" viewBox="0 0 34 34" version="1.1" xmlns="http://www.w3.org/2000/svg" xmlns:xlink="http://www.w3.org/1999/xlink">
    <!-- Generator: Sketch 3.8.3 (29802) - http://www.bohemiancoding.com/sketch -->
    <title>Facebook</title>
    <defs></defs>
    <g id="Templates" stroke="none" stroke-width="1"  fill-rule="evenodd">
        <g id="Sprint-0/04_Templates/footer-desktop" transform="translate(-151.000000, -524.000000)">
            <g id="Group-2" transform="translate(0.000000, 493.000000)">
                <g id="social" transform="translate(151.000000, 30.000000)">
                    <g id="sc-facebook" transform="translate(0.000000, 1.000000)">
                        <path d="M18,13 L18,11.2138 C18,10.408 18.1782,10 19.4298,10 L21,10 L21,7 L18.6,7 C15.6,7 14.4,9.0016 14.4,11.2 L14.4,13 L12,13 L12,16 L14.4,16 L14.4,25 L18,25 L18,16 L20.6436,16 L21,13 L18,13" id="Fill-121"></path>
                    </g>
                    <g class="icon-outline" transform="translate(0.000000, 1.000000)">
                      <path class="outline" d="M16.93,33.86 C7.595,33.86 0,26.265 0,16.93 C0,7.595 7.595,0 16.93,0 C26.265,0 33.86,7.595 33.86,16.93 C33.86,26.265 26.265,33.86 16.93,33.86 L16.93,33.86 Z M16.93,1.86 C8.62,1.86 1.86,8.62 1.86,16.93 C1.86,25.24 8.62,32 16.93,32 C25.24,32 32,25.24 32,16.93 C32,8.62 25.24,1.86 16.93,1.86 L16.93,1.86 Z" id="Fill-52"></path>
                    </g>
                </g>
            </g>
        </g>
    </g>
</svg>