<svg width="14px" height="14px" viewBox="0 0 14 14" version="1.1" xmlns="http://www.w3.org/2000/svg" xmlns:xlink="http://www.w3.org/1999/xlink">
    <!-- Generator: Sketch 47 (45396) - http://www.bohemiancoding.com/sketch -->
    <title>Fill 1</title>
    <desc>Created with Sketch.</desc>
    <defs></defs>
    <g id="Style-Guide-(light)" stroke="none" stroke-width="1" fill="inherit" fill-rule="evenodd">
        <g id="City-Possible-style-guide-(light)" transform="translate(-888.000000, -1543.000000)" fill="inherit">
            <g id="share-buttons-footer" transform="translate(771.000000, 1499.000000)">
                <g id="linkedin-circle" transform="translate(109.000000, 36.000000)">
                    <path d="M13.3468449,15.969125 L13.3468449,13.427125 L13.3468449,13.0021667 L16.1691812,13.0021667 L16.1691812,14.2434583 L16.1397151,14.2434583 C16.2588605,14.062625 16.379287,13.9011667 16.4997135,13.7590833 C16.62014,13.6182917 16.7802817,13.4671667 16.9801385,13.3057083 C17.1799952,13.14425 17.4310973,13.0228333 17.7308825,12.94275 C18.0306676,12.861375 18.3612,12.8213333 18.7211984,12.8213333 C19.6820482,12.8213333 20.4635394,13.14425 21.0631097,13.7900833 C21.6639612,14.4359167 21.9650275,15.3943333 21.9650275,16.6653333 L21.9650275,21.5697917 L19.14141,21.5697917 L19.14141,16.9985833 C19.14141,16.3927917 19.0222647,15.91875 18.7814116,15.5764583 C18.5610567,15.232875 18.2010583,15.0610833 17.7001353,15.0610833 C17.3401369,15.0610833 17.0403517,15.1618333 16.7994987,15.364625 C16.5599268,15.566125 16.379287,15.8076667 16.2588605,16.0905417 C16.1986473,16.2726667 16.1691812,16.503875 16.1691812,16.78675 L16.1691812,21.5697917 L13.3468449,21.5697917 L13.3468449,15.969125 L13.3468449,15.969125 Z M8.93334129,21.5697917 L11.7864248,21.5697917 L11.7864248,13.0021667 L8.93334129,13.0021667 L8.93334129,21.5697917 Z M9.23312644,9.30929167 C9.5136946,9.02641667 9.89419114,8.885625 10.3746161,8.885625 C10.855041,8.885625 11.2355375,9.02641667 11.5148245,9.30929167 C11.7953927,9.59216667 11.9452853,9.94479167 11.9657834,10.3684583 C11.9657834,10.7934167 11.8158908,11.1460417 11.5148245,11.4289167 C11.2355375,11.7105 10.855041,11.8525833 10.3746161,11.8525833 L10.3438689,11.8525833 C9.88394207,11.8525833 9.50344553,11.7105 9.20366038,11.4289167 C8.92309223,11.1460417 8.78216758,10.7934167 8.78216758,10.3684583 C8.78216758,9.94479167 8.93334129,9.59216667 9.23312644,9.30929167 L9.23312644,9.30929167 Z" id="Fill-1"></path>
                </g>
            </g>
        </g>
    </g>
</svg>