<?xml version="1.0" encoding="UTF-8" standalone="no"?>
<svg width="34px" height="34px" viewBox="0 0 34 34" version="1.1" xmlns="http://www.w3.org/2000/svg" xmlns:xlink="http://www.w3.org/1999/xlink">
    <!-- Generator: Sketch 3.8.3 (29802) - http://www.bohemiancoding.com/sketch -->
    <title>Twitter</title>
    <defs></defs>
    <g id="Templates" stroke="none" stroke-width="1"  fill-rule="evenodd">
        <g id="Sprint-0/04_Templates/footer-desktop" transform="translate(-203.000000, -524.000000)" >
            <g id="Group-2" transform="translate(0.000000, 493.000000)">
                <g id="social" transform="translate(151.000000, 30.000000)">
                    <g id="sc-twitter" transform="translate(52.000000, 1.000000)">
                        <path d="M26.6626667,10.896 C25.9373333,11.2166667 25.1626667,11.4333333 24.346,11.5333333 C25.1793333,11.0333333 25.8206667,10.2413333 26.1206667,9.3 C25.3413333,9.76266667 24.4793333,10.1 23.5586667,10.2793333 C22.8206667,9.49133333 21.7706667,9 20.6126667,9 C18.3833333,9 16.5793333,10.808 16.5793333,13.0373333 C16.5793333,13.354 16.6126667,13.6626667 16.6833333,13.9586667 C13.3293333,13.792 10.354,12.1833333 8.36666667,9.73733333 C8.02066667,10.3333333 7.82066667,11.0293333 7.82066667,11.7666667 C7.82066667,13.1666667 8.53733333,14.404 9.62066667,15.1293333 C8.954,15.1126667 8.32933333,14.9293333 7.78733333,14.6246667 L7.78733333,14.6753333 C7.78733333,16.6333333 9.17933333,18.2626667 11.0246667,18.6333333 C10.6873333,18.7246667 10.3293333,18.7746667 9.96266667,18.7746667 C9.704,18.7746667 9.45,18.75 9.204,18.7 C9.71666667,20.304 11.2086667,21.4706667 12.9753333,21.504 C11.596,22.5873333 9.854,23.2333333 7.96266667,23.2333333 C7.63733333,23.2333333 7.31666667,23.2126667 7,23.1753333 C8.77933333,24.3333333 10.9,25 13.1746667,25 C20.604,25 24.6626667,18.846 24.6626667,13.508 C24.6626667,13.3333333 24.658,13.158 24.65,12.9873333 C25.4373333,12.4166667 26.1206667,11.7086667 26.6626667,10.896" id="Fill-122"></path>
                        <path d="M16.93,33.86 C7.595,33.86 0,26.265 0,16.93 C0,7.595 7.595,0 16.93,0 C26.265,0 33.86,7.595 33.86,16.93 C33.86,26.265 26.265,33.86 16.93,33.86 L16.93,33.86 Z M16.93,1.86 C8.62,1.86 1.86,8.62 1.86,16.93 C1.86,25.24 8.62,32 16.93,32 C25.24,32 32,25.24 32,16.93 C32,8.62 25.24,1.86 16.93,1.86 L16.93,1.86 Z" id="Fill-52"></path>
                    </g>
                </g>
            </g>
        </g>
    </g>
</svg>